<mxfile host="app.diagrams.net" agent="Mozilla/5.0 (X11; Linux x86_64) AppleWebKit/537.36 (KHTML, like Gecko) Chrome/135.0.0.0 Safari/537.36" version="26.2.14">
  <diagram name="Page-1" id="SisyP75c3B4kFdikjvoC">
    <mxGraphModel dx="1188" dy="938" grid="1" gridSize="10" guides="1" tooltips="1" connect="1" arrows="1" fold="1" page="1" pageScale="1" pageWidth="850" pageHeight="1100" math="0" shadow="0">
      <root>
        <mxCell id="0" />
        <mxCell id="1" parent="0" />
        <mxCell id="MWLfmNfFZZkS6wyjyc9--1" value="&lt;font style=&quot;font-size: 8px;&quot;&gt;Εμφάνιση επιλογών προς συμπλήρωση&amp;nbsp;&lt;/font&gt;" style="ellipse;shape=umlControl;whiteSpace=wrap;html=1;rounded=1;" parent="1" vertex="1">
          <mxGeometry x="440" y="180" width="70" height="80" as="geometry" />
        </mxCell>
        <mxCell id="MWLfmNfFZZkS6wyjyc9--2" value="&lt;span style=&quot;font-size: 10px;&quot;&gt;Χάρτης Περιοχής, Λίστα ιδιοτήτων...&amp;nbsp;&lt;/span&gt;" style="ellipse;shape=umlEntity;whiteSpace=wrap;html=1;rounded=1;" parent="1" vertex="1">
          <mxGeometry x="440" y="50" width="80" height="80" as="geometry" />
        </mxCell>
        <mxCell id="MWLfmNfFZZkS6wyjyc9--3" value="" style="endArrow=none;html=1;rounded=1;" parent="1" edge="1">
          <mxGeometry width="50" height="50" relative="1" as="geometry">
            <mxPoint x="479.71000000000004" y="190" as="sourcePoint" />
            <mxPoint x="479.71000000000004" y="130" as="targetPoint" />
          </mxGeometry>
        </mxCell>
        <mxCell id="MWLfmNfFZZkS6wyjyc9--4" value="&lt;div&gt;&lt;font style=&quot;font-size: 9px;&quot;&gt;Μενου Επιλογών&lt;/font&gt;&lt;/div&gt;" style="shape=umlBoundary;whiteSpace=wrap;html=1;rounded=1;" parent="1" vertex="1">
          <mxGeometry x="250" y="310" width="100" height="70" as="geometry" />
        </mxCell>
        <mxCell id="MWLfmNfFZZkS6wyjyc9--5" value="&lt;div&gt;&lt;span style=&quot;font-size: 10px;&quot;&gt;Αίτηση Διόρθωσης&lt;/span&gt;&lt;/div&gt;" style="shape=umlBoundary;whiteSpace=wrap;html=1;rounded=1;" parent="1" vertex="1">
          <mxGeometry x="710" y="250" width="90" height="70" as="geometry" />
        </mxCell>
        <mxCell id="MWLfmNfFZZkS6wyjyc9--6" value="&lt;div&gt;&lt;font style=&quot;font-size: 9px;&quot;&gt;Μενού επιλογής Μέσου&lt;/font&gt;&lt;/div&gt;" style="shape=umlBoundary;whiteSpace=wrap;html=1;rounded=1;" parent="1" vertex="1">
          <mxGeometry x="247.5" y="490" width="90" height="70" as="geometry" />
        </mxCell>
        <mxCell id="MWLfmNfFZZkS6wyjyc9--7" value="&lt;span style=&quot;font-size: 10px;&quot;&gt;Λίστα μέσων μεταφοράς&lt;/span&gt;" style="ellipse;shape=umlEntity;whiteSpace=wrap;html=1;rounded=1;" parent="1" vertex="1">
          <mxGeometry x="597.5" y="490" width="80" height="80" as="geometry" />
        </mxCell>
        <mxCell id="MWLfmNfFZZkS6wyjyc9--8" value="" style="endArrow=classic;html=1;rounded=0;curved=1;" parent="1" edge="1">
          <mxGeometry width="50" height="50" relative="1" as="geometry">
            <mxPoint x="690" y="260" as="sourcePoint" />
            <mxPoint x="530" y="220" as="targetPoint" />
            <Array as="points">
              <mxPoint x="590" y="220" />
            </Array>
          </mxGeometry>
        </mxCell>
        <mxCell id="MWLfmNfFZZkS6wyjyc9--9" value="" style="endArrow=classic;html=1;rounded=1;" parent="1" edge="1">
          <mxGeometry width="50" height="50" relative="1" as="geometry">
            <mxPoint x="370" y="219.71" as="sourcePoint" />
            <mxPoint x="430" y="219.71" as="targetPoint" />
          </mxGeometry>
        </mxCell>
        <mxCell id="MWLfmNfFZZkS6wyjyc9--10" value="" style="endArrow=classic;html=1;rounded=1;" parent="1" edge="1">
          <mxGeometry width="50" height="50" relative="1" as="geometry">
            <mxPoint x="460" y="270" as="sourcePoint" />
            <mxPoint x="360" y="320" as="targetPoint" />
          </mxGeometry>
        </mxCell>
        <mxCell id="MWLfmNfFZZkS6wyjyc9--11" value="" style="endArrow=classic;html=1;rounded=0;curved=1;" parent="1" edge="1">
          <mxGeometry width="50" height="50" relative="1" as="geometry">
            <mxPoint x="360" y="360" as="sourcePoint" />
            <mxPoint x="570" y="370" as="targetPoint" />
            <Array as="points">
              <mxPoint x="470" y="380" />
            </Array>
          </mxGeometry>
        </mxCell>
        <mxCell id="MWLfmNfFZZkS6wyjyc9--12" value="&lt;span style=&quot;font-size: 10px;&quot;&gt;Activities&lt;br&gt;Χρήστη&lt;/span&gt;" style="ellipse;shape=umlEntity;whiteSpace=wrap;html=1;rounded=1;" parent="1" vertex="1">
          <mxGeometry x="432.5" y="650" width="80" height="80" as="geometry" />
        </mxCell>
        <mxCell id="MWLfmNfFZZkS6wyjyc9--13" value="User" style="shape=umlActor;verticalLabelPosition=bottom;verticalAlign=top;html=1;outlineConnect=0;" parent="1" vertex="1">
          <mxGeometry x="40" y="200" width="40" height="80" as="geometry" />
        </mxCell>
        <mxCell id="MWLfmNfFZZkS6wyjyc9--14" value="&lt;div&gt;&lt;font style=&quot;font-size: 10px;&quot;&gt;Σελίδα Activities&lt;/font&gt;&lt;/div&gt;&lt;div&gt;&lt;font style=&quot;font-size: 10px;&quot;&gt;UI&lt;/font&gt;&lt;/div&gt;" style="shape=umlBoundary;whiteSpace=wrap;html=1;rounded=1;" parent="1" vertex="1">
          <mxGeometry x="250" y="180" width="100" height="80" as="geometry" />
        </mxCell>
        <mxCell id="MWLfmNfFZZkS6wyjyc9--15" value="" style="endArrow=classic;html=1;rounded=1;" parent="1" edge="1">
          <mxGeometry width="50" height="50" relative="1" as="geometry">
            <mxPoint x="100" y="220" as="sourcePoint" />
            <mxPoint x="240" y="220" as="targetPoint" />
          </mxGeometry>
        </mxCell>
        <mxCell id="MWLfmNfFZZkS6wyjyc9--16" value="Επιλέγει&amp;nbsp;&lt;br&gt;&quot;Create Activity&quot;" style="text;html=1;align=center;verticalAlign=middle;whiteSpace=wrap;rounded=0;" parent="1" vertex="1">
          <mxGeometry x="110" y="180" width="110" height="30" as="geometry" />
        </mxCell>
        <mxCell id="MWLfmNfFZZkS6wyjyc9--17" value="" style="endArrow=classic;html=1;rounded=1;" parent="1" edge="1">
          <mxGeometry width="50" height="50" relative="1" as="geometry">
            <mxPoint x="100" y="260" as="sourcePoint" />
            <mxPoint x="230" y="340" as="targetPoint" />
          </mxGeometry>
        </mxCell>
        <mxCell id="MWLfmNfFZZkS6wyjyc9--18" value="Συμπληρώνει&lt;br&gt;στοιχεία Activity" style="text;html=1;align=center;verticalAlign=middle;whiteSpace=wrap;rounded=0;rotation=30;" parent="1" vertex="1">
          <mxGeometry x="120" y="260" width="110" height="30" as="geometry" />
        </mxCell>
        <mxCell id="MWLfmNfFZZkS6wyjyc9--19" value="&lt;font style=&quot;font-size: 8px;&quot;&gt;Εμφάνιση επιλογών Μέσων&lt;br&gt;Μεταφοράς&amp;nbsp;&lt;/font&gt;" style="ellipse;shape=umlControl;whiteSpace=wrap;html=1;rounded=1;" parent="1" vertex="1">
          <mxGeometry x="437.5" y="480" width="70" height="80" as="geometry" />
        </mxCell>
        <mxCell id="MWLfmNfFZZkS6wyjyc9--20" value="" style="endArrow=none;html=1;rounded=1;exitX=0;exitY=0.5;exitDx=0;exitDy=0;entryX=1.005;entryY=0.64;entryDx=0;entryDy=0;entryPerimeter=0;" parent="1" source="MWLfmNfFZZkS6wyjyc9--7" target="MWLfmNfFZZkS6wyjyc9--19" edge="1">
          <mxGeometry width="50" height="50" relative="1" as="geometry">
            <mxPoint x="602.5" y="541" as="sourcePoint" />
            <mxPoint x="522.5" y="540" as="targetPoint" />
          </mxGeometry>
        </mxCell>
        <mxCell id="MWLfmNfFZZkS6wyjyc9--21" value="" style="endArrow=classic;html=1;rounded=1;" parent="1" edge="1" target="MWLfmNfFZZkS6wyjyc9--19">
          <mxGeometry width="50" height="50" relative="1" as="geometry">
            <mxPoint x="597.5" y="410" as="sourcePoint" />
            <mxPoint x="680" y="480" as="targetPoint" />
          </mxGeometry>
        </mxCell>
        <mxCell id="MWLfmNfFZZkS6wyjyc9--22" value="" style="endArrow=classic;html=1;rounded=1;" parent="1" edge="1">
          <mxGeometry width="50" height="50" relative="1" as="geometry">
            <mxPoint x="427.5" y="530" as="sourcePoint" />
            <mxPoint x="347.5" y="530" as="targetPoint" />
          </mxGeometry>
        </mxCell>
        <mxCell id="MWLfmNfFZZkS6wyjyc9--23" value="" style="endArrow=classic;html=1;rounded=0;curved=1;" parent="1" edge="1">
          <mxGeometry width="50" height="50" relative="1" as="geometry">
            <mxPoint x="60" y="320" as="sourcePoint" />
            <mxPoint x="230" y="520" as="targetPoint" />
            <Array as="points">
              <mxPoint x="70" y="430" />
            </Array>
          </mxGeometry>
        </mxCell>
        <mxCell id="MWLfmNfFZZkS6wyjyc9--24" value="Επιλογή Μέσου" style="text;html=1;align=center;verticalAlign=middle;whiteSpace=wrap;rounded=0;rotation=30;" parent="1" vertex="1">
          <mxGeometry x="105" y="480" width="135" height="38" as="geometry" />
        </mxCell>
        <mxCell id="MWLfmNfFZZkS6wyjyc9--25" value="&lt;font style=&quot;font-size: 11px;&quot;&gt;Προεπεξεργασία&lt;br&gt;Δεδομένων Activity&amp;nbsp;&lt;/font&gt;" style="ellipse;shape=umlControl;whiteSpace=wrap;html=1;rounded=1;" parent="1" vertex="1">
          <mxGeometry x="240" y="650" width="115" height="80" as="geometry" />
        </mxCell>
        <mxCell id="MWLfmNfFZZkS6wyjyc9--26" value="" style="endArrow=classic;html=1;rounded=1;" parent="1" edge="1">
          <mxGeometry width="50" height="50" relative="1" as="geometry">
            <mxPoint x="297.5" y="569.58" as="sourcePoint" />
            <mxPoint x="297.5" y="640" as="targetPoint" />
          </mxGeometry>
        </mxCell>
        <mxCell id="MWLfmNfFZZkS6wyjyc9--27" value="" style="endArrow=classic;html=1;rounded=1;" parent="1" edge="1">
          <mxGeometry width="50" height="50" relative="1" as="geometry">
            <mxPoint x="367.5" y="690" as="sourcePoint" />
            <mxPoint x="427.5" y="690" as="targetPoint" />
          </mxGeometry>
        </mxCell>
        <mxCell id="U3vd9ziyQo_vYnnAmBUN-1" value="&lt;span style=&quot;font-size: 10px;&quot;&gt;Έλεγχος σφάλματος&lt;/span&gt;" style="ellipse;shape=umlControl;whiteSpace=wrap;html=1;rounded=1;" vertex="1" parent="1">
          <mxGeometry x="580" y="320" width="70" height="80" as="geometry" />
        </mxCell>
        <mxCell id="U3vd9ziyQo_vYnnAmBUN-2" value="" style="endArrow=classic;html=1;rounded=1;" edge="1" parent="1">
          <mxGeometry width="50" height="50" relative="1" as="geometry">
            <mxPoint x="670" y="359.58000000000004" as="sourcePoint" />
            <mxPoint x="750" y="330" as="targetPoint" />
          </mxGeometry>
        </mxCell>
        <mxCell id="U3vd9ziyQo_vYnnAmBUN-3" value="Σφάλμα" style="text;html=1;align=center;verticalAlign=middle;whiteSpace=wrap;rounded=0;rotation=-25;" vertex="1" parent="1">
          <mxGeometry x="660" y="346.81" width="107.05" height="33.19" as="geometry" />
        </mxCell>
        <mxCell id="U3vd9ziyQo_vYnnAmBUN-6" value="Ορθές επιλογές" style="text;html=1;align=center;verticalAlign=middle;whiteSpace=wrap;rounded=0;rotation=-40;" vertex="1" parent="1">
          <mxGeometry x="500" y="420" width="60" height="30" as="geometry" />
        </mxCell>
      </root>
    </mxGraphModel>
  </diagram>
</mxfile>
